<mxfile host="app.diagrams.net" modified="2023-05-31T16:05:20.350Z" agent="Mozilla/5.0 (Windows NT 10.0; Win64; x64) AppleWebKit/537.36 (KHTML, like Gecko) Chrome/113.0.0.0 Safari/537.36" etag="1t4_Sr1Oc6J4_kriWKXq" version="21.3.6" type="google">
  <diagram name="Page-1" id="hFnlHsqhcs--l077WpUO">
    <mxGraphModel grid="1" page="1" gridSize="10" guides="1" tooltips="1" connect="1" arrows="1" fold="1" pageScale="1" pageWidth="850" pageHeight="1100" math="0" shadow="0">
      <root>
        <mxCell id="0" />
        <mxCell id="1" parent="0" />
        <mxCell id="07wMCSE9xlJABw34Jzyn-1" value="" style="ellipse;html=1;shape=startState;fillColor=#000000;strokeColor=#ff0000;" vertex="1" parent="1">
          <mxGeometry x="410" y="20" width="30" height="30" as="geometry" />
        </mxCell>
        <mxCell id="07wMCSE9xlJABw34Jzyn-2" value="" style="edgeStyle=orthogonalEdgeStyle;html=1;verticalAlign=bottom;endArrow=open;endSize=8;strokeColor=#ff0000;rounded=0;" edge="1" parent="1" source="07wMCSE9xlJABw34Jzyn-1" target="07wMCSE9xlJABw34Jzyn-3">
          <mxGeometry relative="1" as="geometry">
            <mxPoint x="165" y="100" as="targetPoint" />
          </mxGeometry>
        </mxCell>
        <mxCell id="07wMCSE9xlJABw34Jzyn-3" value="Login" style="swimlane;fontStyle=1;align=center;verticalAlign=middle;childLayout=stackLayout;horizontal=1;startSize=30;horizontalStack=0;resizeParent=0;resizeLast=1;container=0;fontColor=#000000;collapsible=0;rounded=1;arcSize=30;strokeColor=#ff0000;fillColor=#ffffc0;swimlaneFillColor=#ffffc0;dropTarget=0;" vertex="1" parent="1">
          <mxGeometry x="345" y="90" width="160" height="60" as="geometry" />
        </mxCell>
        <mxCell id="07wMCSE9xlJABw34Jzyn-4" style="edgeStyle=orthogonalEdgeStyle;rounded=0;orthogonalLoop=1;jettySize=auto;html=1;exitX=0;exitY=0;exitDx=0;exitDy=0;entryX=0.052;entryY=0.02;entryDx=0;entryDy=0;entryPerimeter=0;" edge="1" parent="07wMCSE9xlJABw34Jzyn-3" source="07wMCSE9xlJABw34Jzyn-6" target="07wMCSE9xlJABw34Jzyn-3">
          <mxGeometry relative="1" as="geometry">
            <Array as="points">
              <mxPoint y="45" />
              <mxPoint x="-60" y="45" />
              <mxPoint x="-60" y="1" />
            </Array>
          </mxGeometry>
        </mxCell>
        <mxCell id="07wMCSE9xlJABw34Jzyn-5" value="Auth failed" style="edgeLabel;html=1;align=center;verticalAlign=middle;resizable=0;points=[];" connectable="0" vertex="1" parent="07wMCSE9xlJABw34Jzyn-4">
          <mxGeometry x="0.2944" y="1" relative="1" as="geometry">
            <mxPoint as="offset" />
          </mxGeometry>
        </mxCell>
        <mxCell id="07wMCSE9xlJABw34Jzyn-6" value="entry: Login Credentials&lt;br&gt;exit: Authentication succesful&amp;nbsp;" style="text;html=1;strokeColor=none;fillColor=none;align=center;verticalAlign=middle;spacingLeft=4;spacingRight=4;whiteSpace=wrap;overflow=hidden;rotatable=0;fontColor=#000000;" vertex="1" parent="07wMCSE9xlJABw34Jzyn-3">
          <mxGeometry y="30" width="160" height="30" as="geometry" />
        </mxCell>
        <mxCell id="07wMCSE9xlJABw34Jzyn-8" value="Dashboard" style="swimlane;fontStyle=1;align=center;verticalAlign=middle;childLayout=stackLayout;horizontal=1;startSize=30;horizontalStack=0;resizeParent=0;resizeLast=1;container=0;fontColor=#000000;collapsible=0;rounded=1;arcSize=30;strokeColor=#ff0000;fillColor=#ffffc0;swimlaneFillColor=#ffffc0;dropTarget=0;" vertex="1" parent="1">
          <mxGeometry x="330" y="220" width="210" height="140" as="geometry" />
        </mxCell>
        <mxCell id="07wMCSE9xlJABw34Jzyn-9" value="entry: view dashboard items&lt;br&gt;do: view vendors&lt;br&gt;do: view customers&lt;br&gt;do: view profile&lt;br&gt;exit: Log out" style="text;html=1;strokeColor=none;fillColor=none;align=center;verticalAlign=middle;spacingLeft=4;spacingRight=4;whiteSpace=wrap;overflow=hidden;rotatable=0;fontColor=#000000;" vertex="1" parent="07wMCSE9xlJABw34Jzyn-8">
          <mxGeometry y="30" width="210" height="110" as="geometry" />
        </mxCell>
        <mxCell id="07wMCSE9xlJABw34Jzyn-10" value="" style="edgeStyle=orthogonalEdgeStyle;html=1;verticalAlign=bottom;endArrow=open;endSize=8;strokeColor=#ff0000;rounded=0;" edge="1" parent="1" source="07wMCSE9xlJABw34Jzyn-8" target="07wMCSE9xlJABw34Jzyn-92">
          <mxGeometry relative="1" as="geometry">
            <mxPoint x="425" y="420" as="targetPoint" />
            <Array as="points" />
          </mxGeometry>
        </mxCell>
        <mxCell id="07wMCSE9xlJABw34Jzyn-11" style="edgeStyle=orthogonalEdgeStyle;rounded=0;orthogonalLoop=1;jettySize=auto;html=1;exitX=0.5;exitY=1;exitDx=0;exitDy=0;" edge="1" parent="1" source="07wMCSE9xlJABw34Jzyn-6" target="07wMCSE9xlJABw34Jzyn-8">
          <mxGeometry relative="1" as="geometry" />
        </mxCell>
        <mxCell id="07wMCSE9xlJABw34Jzyn-29" style="edgeStyle=orthogonalEdgeStyle;rounded=0;orthogonalLoop=1;jettySize=auto;html=1;exitX=0.75;exitY=0;exitDx=0;exitDy=0;entryX=0.706;entryY=1.027;entryDx=0;entryDy=0;entryPerimeter=0;" edge="1" parent="1" source="07wMCSE9xlJABw34Jzyn-12" target="07wMCSE9xlJABw34Jzyn-20">
          <mxGeometry relative="1" as="geometry" />
        </mxCell>
        <mxCell id="07wMCSE9xlJABw34Jzyn-53" value="go back" style="edgeLabel;html=1;align=center;verticalAlign=middle;resizable=0;points=[];" connectable="0" vertex="1" parent="07wMCSE9xlJABw34Jzyn-29">
          <mxGeometry x="-0.218" y="4" relative="1" as="geometry">
            <mxPoint as="offset" />
          </mxGeometry>
        </mxCell>
        <mxCell id="07wMCSE9xlJABw34Jzyn-12" value="Add vendor formÂ " style="swimlane;fontStyle=1;align=center;verticalAlign=middle;childLayout=stackLayout;horizontal=1;startSize=30;horizontalStack=0;resizeParent=0;resizeLast=1;container=0;fontColor=#000000;collapsible=0;rounded=1;arcSize=30;strokeColor=#ff0000;fillColor=#ffffc0;swimlaneFillColor=#ffffc0;dropTarget=0;" vertex="1" parent="1">
          <mxGeometry x="640" y="290" width="180" height="120" as="geometry" />
        </mxCell>
        <mxCell id="07wMCSE9xlJABw34Jzyn-13" value="entry: view form&amp;nbsp;&lt;br&gt;do: fill vendor form&amp;nbsp;&lt;br&gt;exit: save&lt;br&gt;exit: back to dashboard&amp;nbsp;&lt;br&gt;exit: back to vendors list" style="text;html=1;strokeColor=none;fillColor=none;align=center;verticalAlign=middle;spacingLeft=4;spacingRight=4;whiteSpace=wrap;overflow=hidden;rotatable=0;fontColor=#000000;" vertex="1" parent="07wMCSE9xlJABw34Jzyn-12">
          <mxGeometry y="30" width="180" height="90" as="geometry" />
        </mxCell>
        <mxCell id="07wMCSE9xlJABw34Jzyn-19" value="view vendors" style="swimlane;fontStyle=1;align=center;verticalAlign=middle;childLayout=stackLayout;horizontal=1;startSize=30;horizontalStack=0;resizeParent=0;resizeLast=1;container=0;fontColor=#000000;collapsible=0;rounded=1;arcSize=30;strokeColor=#ff0000;fillColor=#ffffc0;swimlaneFillColor=#ffffc0;dropTarget=0;" vertex="1" parent="1">
          <mxGeometry x="640" y="120" width="190" height="90" as="geometry" />
        </mxCell>
        <mxCell id="07wMCSE9xlJABw34Jzyn-20" value="entry: view listing&lt;br&gt;do: edit a vendor details&lt;br&gt;exit: back to dashboard" style="text;html=1;strokeColor=none;fillColor=none;align=center;verticalAlign=middle;spacingLeft=4;spacingRight=4;whiteSpace=wrap;overflow=hidden;rotatable=0;fontColor=#000000;" vertex="1" parent="07wMCSE9xlJABw34Jzyn-19">
          <mxGeometry y="30" width="190" height="60" as="geometry" />
        </mxCell>
        <mxCell id="07wMCSE9xlJABw34Jzyn-21" value="add vendor" style="edgeStyle=orthogonalEdgeStyle;html=1;verticalAlign=bottom;endArrow=open;endSize=8;strokeColor=#ff0000;rounded=0;entryX=0.5;entryY=0;entryDx=0;entryDy=0;" edge="1" parent="1" source="07wMCSE9xlJABw34Jzyn-19" target="07wMCSE9xlJABw34Jzyn-12">
          <mxGeometry relative="1" as="geometry">
            <mxPoint x="720" y="280" as="targetPoint" />
          </mxGeometry>
        </mxCell>
        <mxCell id="07wMCSE9xlJABw34Jzyn-26" style="edgeStyle=orthogonalEdgeStyle;rounded=0;orthogonalLoop=1;jettySize=auto;html=1;exitX=1;exitY=0;exitDx=0;exitDy=0;entryX=0;entryY=0.25;entryDx=0;entryDy=0;" edge="1" parent="1" source="07wMCSE9xlJABw34Jzyn-9" target="07wMCSE9xlJABw34Jzyn-20">
          <mxGeometry relative="1" as="geometry" />
        </mxCell>
        <mxCell id="07wMCSE9xlJABw34Jzyn-49" value="view vendors" style="edgeLabel;html=1;align=center;verticalAlign=middle;resizable=0;points=[];" connectable="0" vertex="1" parent="07wMCSE9xlJABw34Jzyn-26">
          <mxGeometry x="0.2973" relative="1" as="geometry">
            <mxPoint as="offset" />
          </mxGeometry>
        </mxCell>
        <mxCell id="07wMCSE9xlJABw34Jzyn-27" style="edgeStyle=orthogonalEdgeStyle;rounded=0;orthogonalLoop=1;jettySize=auto;html=1;exitX=0;exitY=0.5;exitDx=0;exitDy=0;entryX=1;entryY=0.25;entryDx=0;entryDy=0;" edge="1" parent="1" source="07wMCSE9xlJABw34Jzyn-20" target="07wMCSE9xlJABw34Jzyn-9">
          <mxGeometry relative="1" as="geometry">
            <Array as="points">
              <mxPoint x="560" y="180" />
              <mxPoint x="560" y="278" />
            </Array>
          </mxGeometry>
        </mxCell>
        <mxCell id="07wMCSE9xlJABw34Jzyn-50" value="back to dashboard" style="edgeLabel;html=1;align=center;verticalAlign=middle;resizable=0;points=[];" connectable="0" vertex="1" parent="07wMCSE9xlJABw34Jzyn-27">
          <mxGeometry x="-0.443" y="2" relative="1" as="geometry">
            <mxPoint as="offset" />
          </mxGeometry>
        </mxCell>
        <mxCell id="07wMCSE9xlJABw34Jzyn-30" style="edgeStyle=orthogonalEdgeStyle;rounded=0;orthogonalLoop=1;jettySize=auto;html=1;exitX=0;exitY=0.5;exitDx=0;exitDy=0;entryX=1;entryY=0.5;entryDx=0;entryDy=0;" edge="1" parent="1" source="07wMCSE9xlJABw34Jzyn-13" target="07wMCSE9xlJABw34Jzyn-9">
          <mxGeometry relative="1" as="geometry" />
        </mxCell>
        <mxCell id="07wMCSE9xlJABw34Jzyn-51" value="back to dashboard" style="edgeLabel;html=1;align=center;verticalAlign=middle;resizable=0;points=[];" connectable="0" vertex="1" parent="07wMCSE9xlJABw34Jzyn-30">
          <mxGeometry x="0.1875" y="-1" relative="1" as="geometry">
            <mxPoint as="offset" />
          </mxGeometry>
        </mxCell>
        <mxCell id="07wMCSE9xlJABw34Jzyn-36" style="edgeStyle=orthogonalEdgeStyle;rounded=0;orthogonalLoop=1;jettySize=auto;html=1;exitX=0.25;exitY=0;exitDx=0;exitDy=0;entryX=0.816;entryY=-0.003;entryDx=0;entryDy=0;entryPerimeter=0;" edge="1" parent="1" source="07wMCSE9xlJABw34Jzyn-31" target="07wMCSE9xlJABw34Jzyn-8">
          <mxGeometry relative="1" as="geometry">
            <Array as="points">
              <mxPoint x="943" y="90" />
              <mxPoint x="520" y="90" />
              <mxPoint x="520" y="220" />
            </Array>
          </mxGeometry>
        </mxCell>
        <mxCell id="07wMCSE9xlJABw34Jzyn-37" value="back to dashboard&amp;nbsp;" style="edgeLabel;html=1;align=center;verticalAlign=middle;resizable=0;points=[];" connectable="0" vertex="1" parent="07wMCSE9xlJABw34Jzyn-36">
          <mxGeometry x="-0.0978" relative="1" as="geometry">
            <mxPoint x="1" as="offset" />
          </mxGeometry>
        </mxCell>
        <mxCell id="07wMCSE9xlJABw34Jzyn-31" value="Edit vendor formÂ " style="swimlane;fontStyle=1;align=center;verticalAlign=middle;childLayout=stackLayout;horizontal=1;startSize=30;horizontalStack=0;resizeParent=0;resizeLast=1;container=0;fontColor=#000000;collapsible=0;rounded=1;arcSize=30;strokeColor=#ff0000;fillColor=#ffffc0;swimlaneFillColor=#ffffc0;dropTarget=0;" vertex="1" parent="1">
          <mxGeometry x="900" y="130" width="170" height="110" as="geometry" />
        </mxCell>
        <mxCell id="07wMCSE9xlJABw34Jzyn-32" value="entry: view edit vendor form&lt;br&gt;do: edit fields&lt;br&gt;exit: save new data&lt;br&gt;exit: back to vendors list&lt;br&gt;exit: dashboard" style="text;html=1;strokeColor=none;fillColor=none;align=center;verticalAlign=middle;spacingLeft=4;spacingRight=4;whiteSpace=wrap;overflow=hidden;rotatable=0;fontColor=#000000;" vertex="1" parent="07wMCSE9xlJABw34Jzyn-31">
          <mxGeometry y="30" width="170" height="80" as="geometry" />
        </mxCell>
        <mxCell id="07wMCSE9xlJABw34Jzyn-34" style="edgeStyle=orthogonalEdgeStyle;rounded=0;orthogonalLoop=1;jettySize=auto;html=1;exitX=1;exitY=0;exitDx=0;exitDy=0;entryX=0;entryY=0.25;entryDx=0;entryDy=0;" edge="1" parent="1" source="07wMCSE9xlJABw34Jzyn-20" target="07wMCSE9xlJABw34Jzyn-32">
          <mxGeometry relative="1" as="geometry" />
        </mxCell>
        <mxCell id="07wMCSE9xlJABw34Jzyn-54" value="edit" style="edgeLabel;html=1;align=center;verticalAlign=middle;resizable=0;points=[];" connectable="0" vertex="1" parent="07wMCSE9xlJABw34Jzyn-34">
          <mxGeometry x="-0.0571" y="-2" relative="1" as="geometry">
            <mxPoint as="offset" />
          </mxGeometry>
        </mxCell>
        <mxCell id="07wMCSE9xlJABw34Jzyn-35" value="go back&amp;nbsp;" style="edgeStyle=orthogonalEdgeStyle;rounded=0;orthogonalLoop=1;jettySize=auto;html=1;exitX=0;exitY=0.5;exitDx=0;exitDy=0;entryX=1;entryY=0.75;entryDx=0;entryDy=0;" edge="1" parent="1" source="07wMCSE9xlJABw34Jzyn-32" target="07wMCSE9xlJABw34Jzyn-20">
          <mxGeometry relative="1" as="geometry" />
        </mxCell>
        <mxCell id="07wMCSE9xlJABw34Jzyn-42" value="go back&amp;nbsp;" style="edgeStyle=orthogonalEdgeStyle;rounded=0;orthogonalLoop=1;jettySize=auto;html=1;exitX=0;exitY=0;exitDx=0;exitDy=0;entryX=0.837;entryY=1.027;entryDx=0;entryDy=0;entryPerimeter=0;" edge="1" parent="1" source="07wMCSE9xlJABw34Jzyn-38" target="07wMCSE9xlJABw34Jzyn-20">
          <mxGeometry relative="1" as="geometry">
            <Array as="points">
              <mxPoint x="880" y="270" />
              <mxPoint x="799" y="270" />
            </Array>
          </mxGeometry>
        </mxCell>
        <mxCell id="07wMCSE9xlJABw34Jzyn-38" value="Delete vendor formÂ " style="swimlane;fontStyle=1;align=center;verticalAlign=middle;childLayout=stackLayout;horizontal=1;startSize=30;horizontalStack=0;resizeParent=0;resizeLast=1;container=0;fontColor=#000000;collapsible=0;rounded=1;arcSize=30;strokeColor=#ff0000;fillColor=#ffffc0;swimlaneFillColor=#ffffc0;dropTarget=0;" vertex="1" parent="1">
          <mxGeometry x="880" y="300" width="190" height="110" as="geometry" />
        </mxCell>
        <mxCell id="07wMCSE9xlJABw34Jzyn-39" value="entry: view vendor details&lt;br&gt;do: delete&amp;nbsp;&lt;br&gt;exit: save changes&lt;br&gt;exit: back to vendors listing&lt;br&gt;exit: dashboard" style="text;html=1;strokeColor=none;fillColor=none;align=center;verticalAlign=middle;spacingLeft=4;spacingRight=4;whiteSpace=wrap;overflow=hidden;rotatable=0;fontColor=#000000;" vertex="1" parent="07wMCSE9xlJABw34Jzyn-38">
          <mxGeometry y="30" width="190" height="80" as="geometry" />
        </mxCell>
        <mxCell id="07wMCSE9xlJABw34Jzyn-40" value="" style="edgeStyle=orthogonalEdgeStyle;html=1;verticalAlign=bottom;endArrow=open;endSize=8;strokeColor=#ff0000;rounded=0;entryX=0.81;entryY=1;entryDx=0;entryDy=0;entryPerimeter=0;" edge="1" parent="1" source="07wMCSE9xlJABw34Jzyn-38" target="07wMCSE9xlJABw34Jzyn-9">
          <mxGeometry relative="1" as="geometry">
            <mxPoint x="720" y="510" as="targetPoint" />
            <Array as="points">
              <mxPoint x="975" y="460" />
              <mxPoint x="550" y="460" />
              <mxPoint x="550" y="360" />
            </Array>
          </mxGeometry>
        </mxCell>
        <mxCell id="07wMCSE9xlJABw34Jzyn-52" value="back to dashboard" style="edgeLabel;html=1;align=center;verticalAlign=middle;resizable=0;points=[];" connectable="0" vertex="1" parent="07wMCSE9xlJABw34Jzyn-40">
          <mxGeometry x="0.1426" y="2" relative="1" as="geometry">
            <mxPoint as="offset" />
          </mxGeometry>
        </mxCell>
        <mxCell id="07wMCSE9xlJABw34Jzyn-41" style="edgeStyle=orthogonalEdgeStyle;rounded=0;orthogonalLoop=1;jettySize=auto;html=1;exitX=1;exitY=1;exitDx=0;exitDy=0;entryX=0.193;entryY=-0.011;entryDx=0;entryDy=0;entryPerimeter=0;" edge="1" parent="1" source="07wMCSE9xlJABw34Jzyn-20" target="07wMCSE9xlJABw34Jzyn-38">
          <mxGeometry relative="1" as="geometry" />
        </mxCell>
        <mxCell id="07wMCSE9xlJABw34Jzyn-55" value="delete" style="edgeLabel;html=1;align=center;verticalAlign=middle;resizable=0;points=[];" connectable="0" vertex="1" parent="07wMCSE9xlJABw34Jzyn-41">
          <mxGeometry x="0.1283" relative="1" as="geometry">
            <mxPoint as="offset" />
          </mxGeometry>
        </mxCell>
        <mxCell id="07wMCSE9xlJABw34Jzyn-43" value="Customers listing" style="swimlane;fontStyle=1;align=center;verticalAlign=middle;childLayout=stackLayout;horizontal=1;startSize=30;horizontalStack=0;resizeParent=0;resizeLast=1;container=0;fontColor=#000000;collapsible=0;rounded=1;arcSize=30;strokeColor=#ff0000;fillColor=#ffffc0;swimlaneFillColor=#ffffc0;dropTarget=0;" vertex="1" parent="1">
          <mxGeometry x="50" y="200" width="190" height="90" as="geometry" />
        </mxCell>
        <mxCell id="07wMCSE9xlJABw34Jzyn-44" value="entry: view listing&lt;br&gt;exit: back to dashboard" style="text;html=1;strokeColor=none;fillColor=none;align=center;verticalAlign=middle;spacingLeft=4;spacingRight=4;whiteSpace=wrap;overflow=hidden;rotatable=0;fontColor=#000000;" vertex="1" parent="07wMCSE9xlJABw34Jzyn-43">
          <mxGeometry y="30" width="190" height="60" as="geometry" />
        </mxCell>
        <mxCell id="07wMCSE9xlJABw34Jzyn-45" value="entry: view listing&lt;br&gt;do: edit a vendor details&lt;br&gt;exit: back to dashboard" style="text;html=1;strokeColor=none;fillColor=none;align=center;verticalAlign=middle;spacingLeft=4;spacingRight=4;whiteSpace=wrap;overflow=hidden;rotatable=0;fontColor=#000000;" vertex="1" parent="07wMCSE9xlJABw34Jzyn-43">
          <mxGeometry y="90" width="190" as="geometry" />
        </mxCell>
        <mxCell id="07wMCSE9xlJABw34Jzyn-46" style="edgeStyle=orthogonalEdgeStyle;rounded=0;orthogonalLoop=1;jettySize=auto;html=1;exitX=0;exitY=0.5;exitDx=0;exitDy=0;entryX=1;entryY=0;entryDx=0;entryDy=0;" edge="1" parent="1" source="07wMCSE9xlJABw34Jzyn-9" target="07wMCSE9xlJABw34Jzyn-44">
          <mxGeometry relative="1" as="geometry" />
        </mxCell>
        <mxCell id="07wMCSE9xlJABw34Jzyn-56" value="view customers" style="edgeLabel;html=1;align=center;verticalAlign=middle;resizable=0;points=[];" connectable="0" vertex="1" parent="07wMCSE9xlJABw34Jzyn-46">
          <mxGeometry x="0.1454" y="-3" relative="1" as="geometry">
            <mxPoint as="offset" />
          </mxGeometry>
        </mxCell>
        <mxCell id="07wMCSE9xlJABw34Jzyn-48" style="edgeStyle=orthogonalEdgeStyle;rounded=0;orthogonalLoop=1;jettySize=auto;html=1;exitX=1;exitY=0.25;exitDx=0;exitDy=0;entryX=-0.003;entryY=0.669;entryDx=0;entryDy=0;entryPerimeter=0;" edge="1" parent="1" source="07wMCSE9xlJABw34Jzyn-44" target="07wMCSE9xlJABw34Jzyn-9">
          <mxGeometry relative="1" as="geometry">
            <Array as="points">
              <mxPoint x="270" y="245" />
              <mxPoint x="270" y="324" />
            </Array>
          </mxGeometry>
        </mxCell>
        <mxCell id="07wMCSE9xlJABw34Jzyn-57" value="go back&amp;nbsp;" style="edgeLabel;html=1;align=center;verticalAlign=middle;resizable=0;points=[];" connectable="0" vertex="1" parent="07wMCSE9xlJABw34Jzyn-48">
          <mxGeometry x="0.0073" y="-1" relative="1" as="geometry">
            <mxPoint as="offset" />
          </mxGeometry>
        </mxCell>
        <mxCell id="07wMCSE9xlJABw34Jzyn-62" value="back&amp;nbsp;" style="edgeStyle=orthogonalEdgeStyle;rounded=0;orthogonalLoop=1;jettySize=auto;html=1;exitX=1;exitY=0.25;exitDx=0;exitDy=0;entryX=0.134;entryY=1.004;entryDx=0;entryDy=0;entryPerimeter=0;" edge="1" parent="1" source="07wMCSE9xlJABw34Jzyn-58" target="07wMCSE9xlJABw34Jzyn-9">
          <mxGeometry relative="1" as="geometry" />
        </mxCell>
        <mxCell id="07wMCSE9xlJABw34Jzyn-58" value="view profile" style="swimlane;fontStyle=1;align=center;verticalAlign=middle;childLayout=stackLayout;horizontal=1;startSize=30;horizontalStack=0;resizeParent=0;resizeLast=1;container=0;fontColor=#000000;collapsible=0;rounded=1;arcSize=30;strokeColor=#ff0000;fillColor=#ffffc0;swimlaneFillColor=#ffffc0;dropTarget=0;" vertex="1" parent="1">
          <mxGeometry x="20" y="380" width="180" height="130" as="geometry" />
        </mxCell>
        <mxCell id="07wMCSE9xlJABw34Jzyn-59" value="entry: view admin profile&lt;br&gt;do: change password&lt;br&gt;do: edit profile details&lt;br&gt;exit: back to dashboard" style="text;html=1;strokeColor=none;fillColor=none;align=center;verticalAlign=middle;spacingLeft=4;spacingRight=4;whiteSpace=wrap;overflow=hidden;rotatable=0;fontColor=#000000;" vertex="1" parent="07wMCSE9xlJABw34Jzyn-58">
          <mxGeometry y="30" width="180" height="100" as="geometry" />
        </mxCell>
        <mxCell id="07wMCSE9xlJABw34Jzyn-61" style="edgeStyle=orthogonalEdgeStyle;rounded=0;orthogonalLoop=1;jettySize=auto;html=1;exitX=0;exitY=1;exitDx=0;exitDy=0;" edge="1" parent="1" source="07wMCSE9xlJABw34Jzyn-9" target="07wMCSE9xlJABw34Jzyn-58">
          <mxGeometry relative="1" as="geometry" />
        </mxCell>
        <mxCell id="07wMCSE9xlJABw34Jzyn-63" value="view profile" style="edgeLabel;html=1;align=center;verticalAlign=middle;resizable=0;points=[];" connectable="0" vertex="1" parent="07wMCSE9xlJABw34Jzyn-61">
          <mxGeometry x="0.016" y="-1" relative="1" as="geometry">
            <mxPoint as="offset" />
          </mxGeometry>
        </mxCell>
        <mxCell id="07wMCSE9xlJABw34Jzyn-64" value="Save changes" style="swimlane;fontStyle=1;align=center;verticalAlign=middle;childLayout=stackLayout;horizontal=1;startSize=30;horizontalStack=0;resizeParent=0;resizeLast=1;container=0;fontColor=#000000;collapsible=0;rounded=1;arcSize=30;strokeColor=#ff0000;fillColor=#ffffc0;swimlaneFillColor=#ffffc0;dropTarget=0;" vertex="1" parent="1">
          <mxGeometry x="460" y="730" width="160" height="60" as="geometry" />
        </mxCell>
        <mxCell id="07wMCSE9xlJABw34Jzyn-65" value="exit: System saves changes" style="text;html=1;strokeColor=none;fillColor=none;align=center;verticalAlign=middle;spacingLeft=4;spacingRight=4;whiteSpace=wrap;overflow=hidden;rotatable=0;fontColor=#000000;" vertex="1" parent="07wMCSE9xlJABw34Jzyn-64">
          <mxGeometry y="30" width="160" height="30" as="geometry" />
        </mxCell>
        <mxCell id="07wMCSE9xlJABw34Jzyn-66" value="" style="edgeStyle=orthogonalEdgeStyle;html=1;verticalAlign=bottom;endArrow=open;endSize=8;strokeColor=#ff0000;rounded=0;entryX=0.5;entryY=0;entryDx=0;entryDy=0;" edge="1" parent="1" source="07wMCSE9xlJABw34Jzyn-64" target="07wMCSE9xlJABw34Jzyn-74">
          <mxGeometry relative="1" as="geometry">
            <mxPoint x="150" y="840" as="targetPoint" />
          </mxGeometry>
        </mxCell>
        <mxCell id="07wMCSE9xlJABw34Jzyn-69" value="save" style="edgeStyle=orthogonalEdgeStyle;rounded=0;orthogonalLoop=1;jettySize=auto;html=1;exitX=0.5;exitY=1;exitDx=0;exitDy=0;entryX=1;entryY=0.25;entryDx=0;entryDy=0;" edge="1" parent="1" source="07wMCSE9xlJABw34Jzyn-13" target="07wMCSE9xlJABw34Jzyn-64">
          <mxGeometry relative="1" as="geometry" />
        </mxCell>
        <mxCell id="07wMCSE9xlJABw34Jzyn-70" style="edgeStyle=orthogonalEdgeStyle;rounded=0;orthogonalLoop=1;jettySize=auto;html=1;exitX=0.75;exitY=1;exitDx=0;exitDy=0;entryX=1;entryY=0.5;entryDx=0;entryDy=0;" edge="1" parent="1" source="07wMCSE9xlJABw34Jzyn-39" target="07wMCSE9xlJABw34Jzyn-65">
          <mxGeometry relative="1" as="geometry" />
        </mxCell>
        <mxCell id="07wMCSE9xlJABw34Jzyn-72" value="save" style="edgeLabel;html=1;align=center;verticalAlign=middle;resizable=0;points=[];" connectable="0" vertex="1" parent="07wMCSE9xlJABw34Jzyn-70">
          <mxGeometry x="-0.3008" y="-4" relative="1" as="geometry">
            <mxPoint as="offset" />
          </mxGeometry>
        </mxCell>
        <mxCell id="07wMCSE9xlJABw34Jzyn-71" style="edgeStyle=orthogonalEdgeStyle;rounded=0;orthogonalLoop=1;jettySize=auto;html=1;exitX=1;exitY=0.25;exitDx=0;exitDy=0;entryX=0.75;entryY=1;entryDx=0;entryDy=0;" edge="1" parent="1" source="07wMCSE9xlJABw34Jzyn-32" target="07wMCSE9xlJABw34Jzyn-65">
          <mxGeometry relative="1" as="geometry" />
        </mxCell>
        <mxCell id="07wMCSE9xlJABw34Jzyn-73" value="save" style="edgeLabel;html=1;align=center;verticalAlign=middle;resizable=0;points=[];" connectable="0" vertex="1" parent="07wMCSE9xlJABw34Jzyn-71">
          <mxGeometry x="-0.2735" relative="1" as="geometry">
            <mxPoint as="offset" />
          </mxGeometry>
        </mxCell>
        <mxCell id="07wMCSE9xlJABw34Jzyn-74" value="" style="ellipse;html=1;shape=endState;fillColor=#000000;strokeColor=#ff0000;" vertex="1" parent="1">
          <mxGeometry x="525" y="870" width="30" height="30" as="geometry" />
        </mxCell>
        <mxCell id="07wMCSE9xlJABw34Jzyn-75" value="change password" style="swimlane;fontStyle=1;align=center;verticalAlign=middle;childLayout=stackLayout;horizontal=1;startSize=30;horizontalStack=0;resizeParent=0;resizeLast=1;container=0;fontColor=#000000;collapsible=0;rounded=1;arcSize=30;strokeColor=#ff0000;fillColor=#ffffc0;swimlaneFillColor=#ffffc0;dropTarget=0;" vertex="1" parent="1">
          <mxGeometry x="210" y="570" width="180" height="120" as="geometry" />
        </mxCell>
        <mxCell id="07wMCSE9xlJABw34Jzyn-76" value="entry. change password form&amp;nbsp;&lt;br&gt;do: fill old password&lt;br style=&quot;border-color: var(--border-color);&quot;&gt;do: enter new password&lt;br style=&quot;border-color: var(--border-color);&quot;&gt;do: verify new password&lt;br style=&quot;border-color: var(--border-color);&quot;&gt;exit: save changes&lt;br style=&quot;border-color: var(--border-color);&quot;&gt;exit: back to dashboard" style="text;html=1;strokeColor=none;fillColor=none;align=center;verticalAlign=middle;spacingLeft=4;spacingRight=4;whiteSpace=wrap;overflow=hidden;rotatable=0;fontColor=#000000;" vertex="1" parent="07wMCSE9xlJABw34Jzyn-75">
          <mxGeometry y="30" width="180" height="90" as="geometry" />
        </mxCell>
        <mxCell id="07wMCSE9xlJABw34Jzyn-78" style="edgeStyle=orthogonalEdgeStyle;rounded=0;orthogonalLoop=1;jettySize=auto;html=1;exitX=0.5;exitY=1;exitDx=0;exitDy=0;entryX=0.628;entryY=0.03;entryDx=0;entryDy=0;entryPerimeter=0;" edge="1" parent="1" source="07wMCSE9xlJABw34Jzyn-76" target="07wMCSE9xlJABw34Jzyn-64">
          <mxGeometry relative="1" as="geometry" />
        </mxCell>
        <mxCell id="07wMCSE9xlJABw34Jzyn-80" value="save" style="edgeLabel;html=1;align=center;verticalAlign=middle;resizable=0;points=[];" connectable="0" vertex="1" parent="07wMCSE9xlJABw34Jzyn-78">
          <mxGeometry x="0.0938" y="-2" relative="1" as="geometry">
            <mxPoint as="offset" />
          </mxGeometry>
        </mxCell>
        <mxCell id="07wMCSE9xlJABw34Jzyn-81" style="edgeStyle=orthogonalEdgeStyle;rounded=0;orthogonalLoop=1;jettySize=auto;html=1;exitX=1;exitY=0.5;exitDx=0;exitDy=0;entryX=0.5;entryY=0;entryDx=0;entryDy=0;" edge="1" parent="1" source="07wMCSE9xlJABw34Jzyn-59" target="07wMCSE9xlJABw34Jzyn-75">
          <mxGeometry relative="1" as="geometry">
            <Array as="points">
              <mxPoint x="270" y="460" />
              <mxPoint x="270" y="560" />
              <mxPoint x="300" y="560" />
            </Array>
          </mxGeometry>
        </mxCell>
        <mxCell id="07wMCSE9xlJABw34Jzyn-82" value="change password" style="edgeLabel;html=1;align=center;verticalAlign=middle;resizable=0;points=[];" connectable="0" vertex="1" parent="07wMCSE9xlJABw34Jzyn-81">
          <mxGeometry x="-0.376" y="2" relative="1" as="geometry">
            <mxPoint as="offset" />
          </mxGeometry>
        </mxCell>
        <mxCell id="07wMCSE9xlJABw34Jzyn-90" value="back" style="edgeStyle=orthogonalEdgeStyle;rounded=0;orthogonalLoop=1;jettySize=auto;html=1;exitX=0.75;exitY=0;exitDx=0;exitDy=0;" edge="1" parent="1" source="07wMCSE9xlJABw34Jzyn-83" target="07wMCSE9xlJABw34Jzyn-59">
          <mxGeometry relative="1" as="geometry" />
        </mxCell>
        <mxCell id="07wMCSE9xlJABw34Jzyn-83" value="edit profile detailsÂ " style="swimlane;fontStyle=1;align=center;verticalAlign=middle;childLayout=stackLayout;horizontal=1;startSize=30;horizontalStack=0;resizeParent=0;resizeLast=1;container=0;fontColor=#000000;collapsible=0;rounded=1;arcSize=30;strokeColor=#ff0000;fillColor=#ffffc0;swimlaneFillColor=#ffffc0;dropTarget=0;" vertex="1" parent="1">
          <mxGeometry x="-30" y="600" width="180" height="100" as="geometry" />
        </mxCell>
        <mxCell id="07wMCSE9xlJABw34Jzyn-84" value="entry: profile form&lt;br&gt;do: fill new details&lt;br&gt;exit: save changes&lt;br&gt;exit: back to profile view" style="text;html=1;strokeColor=none;fillColor=none;align=center;verticalAlign=middle;spacingLeft=4;spacingRight=4;whiteSpace=wrap;overflow=hidden;rotatable=0;fontColor=#000000;" vertex="1" parent="07wMCSE9xlJABw34Jzyn-83">
          <mxGeometry y="30" width="180" height="70" as="geometry" />
        </mxCell>
        <mxCell id="07wMCSE9xlJABw34Jzyn-85" value="" style="edgeStyle=orthogonalEdgeStyle;html=1;verticalAlign=bottom;endArrow=open;endSize=8;strokeColor=#ff0000;rounded=0;entryX=0;entryY=0.75;entryDx=0;entryDy=0;" edge="1" parent="1" source="07wMCSE9xlJABw34Jzyn-83" target="07wMCSE9xlJABw34Jzyn-64">
          <mxGeometry relative="1" as="geometry">
            <mxPoint x="430" y="610" as="targetPoint" />
            <Array as="points">
              <mxPoint x="130" y="810" />
              <mxPoint x="420" y="810" />
              <mxPoint x="420" y="775" />
            </Array>
          </mxGeometry>
        </mxCell>
        <mxCell id="07wMCSE9xlJABw34Jzyn-88" value="save&amp;nbsp;" style="edgeLabel;html=1;align=center;verticalAlign=middle;resizable=0;points=[];" connectable="0" vertex="1" parent="07wMCSE9xlJABw34Jzyn-85">
          <mxGeometry x="0.0296" y="2" relative="1" as="geometry">
            <mxPoint as="offset" />
          </mxGeometry>
        </mxCell>
        <mxCell id="07wMCSE9xlJABw34Jzyn-89" style="edgeStyle=orthogonalEdgeStyle;rounded=0;orthogonalLoop=1;jettySize=auto;html=1;exitX=0.25;exitY=1;exitDx=0;exitDy=0;" edge="1" parent="1" source="07wMCSE9xlJABw34Jzyn-59" target="07wMCSE9xlJABw34Jzyn-83">
          <mxGeometry relative="1" as="geometry" />
        </mxCell>
        <mxCell id="07wMCSE9xlJABw34Jzyn-91" value="edit" style="edgeLabel;html=1;align=center;verticalAlign=middle;resizable=0;points=[];" connectable="0" vertex="1" parent="07wMCSE9xlJABw34Jzyn-89">
          <mxGeometry x="-0.3739" y="4" relative="1" as="geometry">
            <mxPoint as="offset" />
          </mxGeometry>
        </mxCell>
        <mxCell id="07wMCSE9xlJABw34Jzyn-92" value="logoutÂ " style="swimlane;fontStyle=1;align=center;verticalAlign=middle;childLayout=stackLayout;horizontal=1;startSize=30;horizontalStack=0;resizeParent=0;resizeLast=1;container=0;fontColor=#000000;collapsible=0;rounded=1;arcSize=30;strokeColor=#ff0000;fillColor=#ffffc0;swimlaneFillColor=#ffffc0;dropTarget=0;" vertex="1" parent="1">
          <mxGeometry x="355" y="450" width="160" height="60" as="geometry" />
        </mxCell>
        <mxCell id="07wMCSE9xlJABw34Jzyn-93" value="exit: logout&amp;nbsp;" style="text;html=1;strokeColor=none;fillColor=none;align=center;verticalAlign=middle;spacingLeft=4;spacingRight=4;whiteSpace=wrap;overflow=hidden;rotatable=0;fontColor=#000000;" vertex="1" parent="07wMCSE9xlJABw34Jzyn-92">
          <mxGeometry y="30" width="160" height="30" as="geometry" />
        </mxCell>
        <mxCell id="07wMCSE9xlJABw34Jzyn-94" value="" style="edgeStyle=orthogonalEdgeStyle;html=1;verticalAlign=bottom;endArrow=open;endSize=8;strokeColor=#ff0000;rounded=0;" edge="1" parent="1" source="07wMCSE9xlJABw34Jzyn-92" target="07wMCSE9xlJABw34Jzyn-96">
          <mxGeometry relative="1" as="geometry">
            <mxPoint x="490" y="580" as="targetPoint" />
          </mxGeometry>
        </mxCell>
        <mxCell id="07wMCSE9xlJABw34Jzyn-96" value="" style="ellipse;html=1;shape=endState;fillColor=#000000;strokeColor=#ff0000;" vertex="1" parent="1">
          <mxGeometry x="475" y="560" width="30" height="30" as="geometry" />
        </mxCell>
      </root>
    </mxGraphModel>
  </diagram>
</mxfile>
